<svg id="Layer_1" data-name="Layer 1" xmlns="http://www.w3.org/2000/svg" viewBox="0 0 63 63"><defs><style>.cls-1{fill:#ffa69e;stroke:#ffa69e;stroke-miterlimit:10;stroke-width:3px;}</style></defs><title>chaleurCLogo</title><path class="cls-1" d="M55.52,25.81h-.83a35,35,0,0,0-4.92-14.24Q45.5,4.79,39.59,4.8a10.06,10.06,0,0,0-6.88,2.87c-2.39,2.2-4.5,5.88-6.36,11A84.44,84.44,0,0,0,23,32q-1.74,9.92-.81,15.78,1,6.81,5.08,9.37a8.63,8.63,0,0,0,4.78,1.42q6,0,13.15-8.5a55.15,55.15,0,0,0,8.36-13.74h.79l-4.77,23h-.82q.16-1.65-1.44-1.65a31.74,31.74,0,0,0-3.92.55l-2,.36a58.52,58.52,0,0,1-10,1,28.85,28.85,0,0,1-14.61-3.7A20.94,20.94,0,0,1,7.38,45.06,24.78,24.78,0,0,1,6.19,31.48a31.46,31.46,0,0,1,8.06-16A35.94,35.94,0,0,1,28.33,5.94a33.26,33.26,0,0,1,11.8-2.21A45,45,0,0,1,50.77,5.19a19.26,19.26,0,0,0,4.16.75,2.43,2.43,0,0,0,2.28-1.58H58Z"/></svg>